<svg id="_x33_0" enable-background="new 0 0 64 64" height="512" viewBox="0 0 64 64" width="512" xmlns="http://www.w3.org/2000/svg" xmlns:xlink="http://www.w3.org/1999/xlink"><linearGradient id="SVGID_1_" gradientUnits="userSpaceOnUse" x1="32" x2="32" y1="63" y2="1"><stop offset="0" stop-color="#9f2fff"/><stop offset="1" stop-color="#0bb1d3"/></linearGradient><path d="m50 55c1.654 0 3-1.346 3-3s-1.346-3-3-3-3 1.346-3 3 1.346 3 3 3zm0-4c.551 0 1 .449 1 1s-.449 1-1 1-1-.449-1-1 .449-1 1-1zm-4.414 6h-.586v-2h.586c1.179 0 2.288.459 3.121 1.293l-1.414 1.414c-.449-.449-1.072-.707-1.707-.707zm-31.798.458c-1.567.485-3.005 1.344-4.198 2.538l-3.004 3.004h40.243.171 1.171c1.754 0 3.42-.573 4.784-1.63l1.045 1.044c.378.378.88.586 1.414.586h5.586c1.103 0 2-.897 2-2v-4c0-2.206-1.794-4-4-4h-1.307l-.745-1.985c-1.349-3.598-4.837-6.015-8.678-6.015-.415 0-.82.037-1.221.09 1.274-3.087 1.951-6.424 1.951-9.772v-10.564l-13.606 12.246h5.566c-.442 5.482-4.479 10.16-9.925 11.327l-2.035.436v-15.997l3.941.232.117-1.996-4.058-.239v-7.488l12.245-1.633c3.281-.436 5.755-3.262 5.755-6.572 0-3.403-2.552-6.239-5.938-6.595l-8.191-.862c-.66-3.751-3.934-6.613-7.871-6.613-4.411 0-8 3.589-8 8 0 2.818 1.346 5.509 3.6 7.2l.4.3v.5h-4v2h4v3.325l-1.792.239c-2.398.319-4.208 2.386-4.208 4.806 0 2.564 2.005 4.69 4.565 4.841l1.435.085v16.467l-2.035-.437c-5.445-1.166-9.483-5.844-9.925-11.326h5.566l-13.606-12.246v10.564c0 9.249 4.932 17.617 12.788 22.14zm-2.344 3.542c2.445-2.118 6.054-2.633 9.108-1.105l.723.361 2.492-3.115c1.089-1.361 2.713-2.141 4.456-2.141 2.052 0 4.013.98 5.243 2.621l.134.18c.564.751 1.461 1.199 2.4 1.199h4.007c.425.754.973 1.427 1.613 2zm43.632-9.283.745 1.985c.29.776 1.042 1.298 1.872 1.298h1.307c1.103 0 2 .897 2 2v4h-2v-3h-2v3h-1.586l-.414-.414v-2.586h-2v.586l-.707.707c-1.101 1.101-2.564 1.707-4.122 1.707h-1.171-.171c-3.214 0-5.829-2.615-5.829-5.829v-.901c0-4.008 3.261-7.27 7.27-7.27 3.013 0 5.748 1.896 6.806 4.717zm-28.076-21.071-4-.235v-6.335l4-.533zm18-15.576c0 2.312-1.728 4.285-4.02 4.59l-11.98 1.598v-2.258h4v-2h-4v-.5l.4-.3c2.084-1.563 3.377-3.983 3.563-6.566l7.891.831c2.363.247 4.146 2.228 4.146 4.605zm-23.2-.47c-1.753-1.315-2.8-3.409-2.8-5.6 0-3.309 2.691-6 6-6 2.751 0 5.069 1.863 5.775 4.392l-2.247-.237c-.67-1.274-1.991-2.155-3.528-2.155-2.206 0-4 1.794-4 4s1.794 4 4 4c2.132 0 3.865-1.682 3.978-3.786l1.996.21c-.126 2.035-1.136 3.947-2.775 5.176l-1.199.9v1.5h-4v-1.5zm5.2-5.6c0 1.103-.897 2-2 2s-2-.897-2-2 .897-2 2-2 2 .897 2 2zm-4 10h4v2.524l-4 .533zm-3.317 11.215c-1.505-.089-2.683-1.339-2.683-2.845 0-1.422 1.063-2.636 2.473-2.824l1.527-.204v5.951zm-16.683-.97 6.394 5.755h-2.394v1c0 6.842 4.856 12.849 11.546 14.283l4.454.954v-18.824l4 .235v18.588l4.454-.954c6.69-1.433 11.546-7.44 11.546-14.282v-1h-2.394l6.394-5.755v6.073c0 3.623-.855 7.234-2.461 10.472-3.257 1.439-5.539 4.695-5.539 8.48v.902c0 .631.083 1.241.224 1.829h-3.224c-.313 0-.612-.149-.799-.399l-.134-.179c-1.608-2.144-4.166-3.423-6.844-3.423-2.354 0-4.547 1.054-6.017 2.892l-1.5 1.875c-1.055-.432-2.184-.675-3.322-.739-8.74-3.696-14.384-12.204-14.384-21.71z" fill="url(#SVGID_1_)"/></svg>