<svg id="Layer_3" enable-background="new 0 0 64 64" height="512" viewBox="0 0 64 64" width="512" xmlns="http://www.w3.org/2000/svg" xmlns:xlink="http://www.w3.org/1999/xlink"><linearGradient id="SVGID_1_" gradientUnits="userSpaceOnUse" x1="32" x2="32" y1="63" y2="1"><stop offset="0" stop-color="#9f2fff"/><stop offset="1" stop-color="#0bb1d3"/></linearGradient><path d="m45 1c-9.925 0-18 8.075-18 18 0 2.876.695 5.586 1.9 8h-27.9v36h52v-27.9c5.917-2.952 10-9.051 10-16.1 0-9.925-8.075-18-18-18zm-3.53 35.648-8.263 7.87c-1.681 1.6-3.885 2.482-6.207 2.482s-4.526-.882-6.207-2.483l-16.293-15.517h25.544c2.606 3.884 6.682 6.7 11.426 7.648zm-22.056 9.317c.159.151.328.287.493.427l-16.907 13.527v-29.586zm2.207 1.619c1.628.917 3.468 1.416 5.379 1.416s3.751-.499 5.38-1.415l16.768 13.415h-44.296zm29.379 12.335-16.907-13.526c.166-.14.335-.276.493-.427l9.465-9.014c.316.017.629.048.949.048 2.106 0 4.12-.383 6-1.05zm-6-24.919c-8.822 0-16-7.178-16-16s7.178-16 16-16 16 7.178 16 16-7.178 16-16 16zm.005-28.003h-.329c-.001 0-.001 0-.002 0-3.117 0-6.049 1.214-8.254 3.418-2.206 2.205-3.421 5.138-3.42 8.256v.33c0 3.205 1.249 6.219 3.516 8.485 2.266 2.266 5.279 3.514 8.483 3.514h.002 1.999v-2h-1.999c-.001 0-.001 0-.002 0-2.67 0-5.181-1.04-7.069-2.928-1.89-1.89-2.93-4.4-2.93-7.071v-.33c0-2.585 1.006-5.014 2.834-6.841 1.827-1.827 4.256-2.833 6.84-2.833h.002.329c5.511.002 9.995 4.487 9.995 9.998v3.505c0 1.379-1.121 2.5-2.5 2.5s-2.5-1.121-2.5-2.5v-2.5-2c0-2.757-2.243-5-5-5s-5 2.243-5 5v2c0 2.757 2.243 5 5 5 1.229 0 2.342-.463 3.214-1.202.561 1.846 2.259 3.202 4.286 3.202 2.481 0 4.5-2.019 4.5-4.5v-3.505c0-6.613-5.381-11.996-11.995-11.998zm-.005 16.003c-1.654 0-3-1.346-3-3v-2c0-1.654 1.346-3 3-3s3 1.346 3 3v2c0 1.654-1.346 3-3 3zm-34 10v-2h2v2zm6 0h-2v-2h2zm4 0h-2v-2h2zm28 22h-2v-2h2zm0-4h-2v-10h2z" fill="url(#SVGID_1_)"/></svg>