<svg id="Layer_35" enable-background="new 0 0 64 64" height="512" viewBox="0 0 64 64" width="512"
    xmlns="http://www.w3.org/2000/svg" xmlns:xlink="http://www.w3.org/1999/xlink">
    <linearGradient id="SVGID_1_" gradientUnits="userSpaceOnUse" x1="32" x2="32" y1="63" y2="1">
        <stop offset="0" stop-color="#9f2fff" />
        <stop offset="1" stop-color="#0bb1d3" />
    </linearGradient>
    <path
        d="m57 25h-2v-24h-36v8.685c-2.361 1.126-4 3.53-4 6.315 0 2.014.86 3.826 2.225 5.104-4.586.531-8.76 3.177-11.161 7.178l-4.587 7.645c-.312.521-.477 1.117-.477 1.724 0 1.847 1.502 3.349 3.349 3.349h.394c1.123 0 2.164-.558 2.787-1.491l6.193-9.29c.316-.474.764-.829 1.277-1.03v12.548l-8.565 15.158c-.285.569-.435 1.205-.435 1.84v.149c0 2.27 1.846 4.116 4.115 4.116 1.536 0 2.933-.845 3.623-2.166l9.816-16.801 3.446 4.198v6.769c0 2.206 1.794 4 4 4h24v-24h2v4h6v-18h-6zm-23.204 18.226-4.796-5.596v-9.771c5.189-1.001 9-5.544 9-10.914v-3.406l1.615-.96.604 2.421h6.781v42h-12.556c.344-.591.556-1.268.556-2v-8.521c0-1.191-.427-2.347-1.204-3.253zm1.653-38.395-2.449-.612v-1.219h4.08c.488 3.387 3.401 6 6.92 6 1.049 0 2.07-.237 3-.678v4.678h-5.219l-.611-2.446-1.219-.501-1.951 1.159v-.712c0-1.648-1.149-3.025-2.685-3.394l.634-1.056zm11.551 1.143c-.864.653-1.907 1.026-3 1.026-2.414 0-4.434-1.721-4.899-4h7.899zm-26-2.974h10v2.781l2.416.603-.66 1.1c-1.045.607-1.756 1.724-1.756 3.016v5.07c0 2.237-1.459 4.139-3.52 4.773.949-1.195 1.52-2.702 1.52-4.343 0-3.86-3.14-7-7-7-.34 0-.672.033-1 .08zm1.972 28.614-.972.972-.972-.972.574-8.618h.307c.031 0 .06.004.091.004.033 0 .064-.004.096-.005h.004.003c.099-.001.196-.009.294-.015zm-5.972-15.614c0-2.757 2.243-5 5-5s5 2.243 5 5-2.243 5-5 5-5-2.243-5-5zm12 39v-6.769c0-.462-.162-.913-.454-1.269l-4.073-4.962h-2.047l-10.437 17.866c-.366.699-1.084 1.134-1.874 1.134-1.166 0-2.115-.949-2.115-2.115v-.149c0-.326.077-.653.2-.901l8.8-15.572v-15.263h-1c-1.588 0-3.061.789-3.941 2.109l-6.193 9.29c-.252.376-.671.601-1.123.601h-.394c-.744 0-1.349-.605-1.349-1.349 0-.245.066-.485.192-.694l4.587-7.645c2.336-3.894 6.607-6.312 11.148-6.312l.671-.001-.626 9.387 3.028 3.028 3.028-3.028-.641-9.62 2.31-.231c3.593-.359 6.303-3.354 6.303-6.965v-5.07c0-.827.673-1.5 1.5-1.5s1.5.673 1.5 1.5v6.445c0 4.652-3.487 8.547-8.11 9.062l-.89.098v12.265l5.278 6.157c.466.544.722 1.237.722 1.952v8.521c0 1.103-.897 2-2 2s-2-.897-2-2zm24 2h-4v-54h4zm2-24v-6h2v6zm4-10h2v14h-2zm-14 32h-2v-2h2zm0-4h-2v-2h2zm0-4h-2v-2h2z"
        fill="url(#SVGID_1_)" />
</svg>