<svg id="Layer_5" enable-background="new 0 0 64 64" height="512" viewBox="0 0 64 64" width="512" xmlns="http://www.w3.org/2000/svg" xmlns:xlink="http://www.w3.org/1999/xlink"><linearGradient id="SVGID_1_" gradientUnits="userSpaceOnUse" x1="32" x2="32" y1="63.001" y2="1"><stop offset="0" stop-color="#9f2fff"/><stop offset="1" stop-color="#0bb1d3"/></linearGradient><path d="m55 36c2.206 0 4-1.794 4-4s-1.794-4-4-4-4 1.794-4 4 1.794 4 4 4zm0-6c1.103 0 2 .897 2 2s-.897 2-2 2-2-.897-2-2 .897-2 2-2zm-51 14h6v-4h2v4h6v-8h3.976l-4.808 21.853c-.632 2.112.571 4.346 2.681 4.978.374.112.761.169 1.151.169 1.752 0 3.328-1.172 3.836-2.864l5.41-18.964c.176.351.308.728.385 1.124l3.536 17.854c.505 1.678 2.081 2.85 3.833 2.85.39 0 .777-.057 1.15-.169 2.11-.632 3.313-2.866 2.704-4.888l-3.714-18.575c1.114-.711 1.86-1.951 1.86-3.368h1.751c1.638 4.216 5.668 7 10.249 7 6.065 0 11-4.935 11-11s-4.935-11-11-11c-4.581 0-8.611 2.784-10.249 7h-1.751v-3.994c0-3.76-2.318-6.986-5.599-8.332 2.166-1.433 3.599-3.888 3.599-6.674 0-4.411-3.589-8-8-8s-8 3.589-8 8c0 3.166 1.854 5.901 4.529 7.196-.679.39-1.305.86-1.858 1.407-2.774-1.529-4.671-4.155-4.671-6.603 0-2.206-1.794-4-4-4s-4 1.794-4 4c0 5.884 3.99 11.529 9.985 14.256l-.004 2.744h-17.284l-3.697 2.465v3.07l3 2zm39.193-14 .22-.7c1.184-3.768 4.635-6.3 8.587-6.3 4.963 0 9 4.038 9 9s-4.037 9-9 9c-3.952 0-7.403-2.532-8.587-6.3l-.22-.7h-3.193v-4zm-27.193 12h-2v-4h-6v4h-2v-6h10zm23.916 16.426c.315 1.056-.285 2.173-1.341 2.489-1.033.31-2.188-.336-2.468-1.248l-3.513-17.76c-.448-2.266-2.087-4.126-4.278-4.857l-.633 1.897c.35.117.678.279.982.474l-5.749 20.152c-.308 1.026-1.455 1.652-2.492 1.341-1.055-.316-1.655-1.433-1.321-2.561l4.874-22.14.004-.213h8.019c0 2.206 1.794 4 4 4 .076 0 .147-.018.222-.023zm-15.916-49.426c0-3.309 2.691-6 6-6s6 2.691 6 6-2.691 6-6 6-6-2.691-6-6zm-10 2c0-1.103.897-2 2-2s2 .897 2 2c0 3.11 2.129 6.283 5.395 8.194-.726 1.142-1.209 2.453-1.357 3.864-4.793-2.509-8.038-7.286-8.038-12.058zm9.987 12.995c.006-3.857 3.149-6.995 7.006-6.995 3.863 0 7.007 3.143 7.007 7.006v11.994c0 1.103-.897 2-2 2s-2-.897-2-2v-10.859c0-1.676-.832-3.231-2.227-4.16l-1.219-.812-1.109 1.664 1.219.812c.837.557 1.336 1.49 1.336 2.496v2.859h-8.019zm-20.987 7.54 2.303-1.535h26.697v4h-26.697l-2.303-1.535z" fill="url(#SVGID_1_)"/></svg>