<svg height="496pt" viewBox="-80 0 496 496" width="496pt" xmlns="http://www.w3.org/2000/svg" xmlns:xlink="http://www.w3.org/1999/xlink"><linearGradient id="a" gradientUnits="userSpaceOnUse" x1="168" x2="168" y1="496" y2="0"><stop offset="0" stop-color="#9f2fff"/><stop offset="1" stop-color="#0bb1d3"/></linearGradient><path d="m112 304h112v-48h-112zm48-16v-16h16v16zm48 0h-16v-16h16zm-80-16h16v16h-16zm-16 96h112v-48h-112zm48-16v-16h16v16zm48 0h-16v-16h16zm-80-16h16v16h-16zm-16 96h112v-48h-112zm48-16v-16h16v16zm48 0h-16v-16h16zm-80-16h16v16h-16zm-104 96h128v-8c0-3.265625 6.230469-8 16-8s16 4.734375 16 8v8h128c13.230469 0 24-10.769531 24-24v-224c0-13.230469-10.769531-24-24-24h-8v-88c0-74.992188-61.007812-136-136-136s-136 61.007812-136 136v88h-8c-13.230469 0-24 10.769531-24 24v224c0 13.230469 10.769531 24 24 24zm144-32c-14.183594 0-25.945312 6.59375-30.246094 16h-57.753906v-41.574219c0-7.851562 2.304688-15.449219 6.65625-21.984375 6.113281-9.175781 9.34375-19.847656 9.34375-30.867187v-51.160157c0-11.015624-3.230469-21.6875-9.34375-30.855468-4.351562-6.535156-6.65625-14.132813-6.65625-21.984375v-41.574219h176v41.574219c0 7.851562-2.304688 15.449219-6.65625 21.984375-6.113281 9.175781-9.34375 19.847656-9.34375 30.867187v51.160157c0 11.015624 3.230469 21.6875 9.34375 30.855468 4.351562 6.535156 6.65625 14.132813 6.65625 21.984375v41.574219h-57.753906c-4.300782-9.40625-16.0625-16-30.246094-16zm72-240h-144v-88c0-39.695312 32.304688-72 72-72s72 32.304688 72 72zm80 24v224c0 4.40625-3.59375 8-8 8h-40v-41.574219c0-11.019531-3.230469-21.691406-9.34375-30.859375-4.351562-6.542968-6.65625-14.140625-6.65625-21.992187v-51.160157c0-7.847656 2.304688-15.445312 6.65625-21.980468 6.113281-9.167969 9.34375-19.839844 9.34375-30.859375v-41.574219h40c4.40625 0 8 3.59375 8 8zm-272-112c0-66.167969 53.832031-120 120-120s120 53.832031 120 120v88h-32v-88c0-48.519531-39.480469-88-88-88s-88 39.480469-88 88v88h-32zm-32 112c0-4.40625 3.59375-8 8-8h40v41.574219c0 11.019531 3.230469 21.691406 9.34375 30.859375 4.351562 6.542968 6.65625 14.140625 6.65625 21.992187v51.160157c0 7.847656-2.304688 15.445312-6.65625 21.980468-6.113281 9.167969-9.34375 19.839844-9.34375 30.859375v41.574219h-40c-4.40625 0-8-3.59375-8-8zm0 0" fill="url(#a)"/></svg>