<svg id="Layer_5" enable-background="new 0 0 64 64" height="512" viewBox="0 0 64 64" width="512"
    xmlns="http://www.w3.org/2000/svg" xmlns:xlink="http://www.w3.org/1999/xlink">
    <linearGradient id="SVGID_1_" gradientUnits="userSpaceOnUse" x1="32" x2="32" y1="63" y2="1">
        <stop offset="0" stop-color="#9f2fff" />
        <stop offset="1" stop-color="#0bb1d3" />
    </linearGradient>
    <path
        d="m58 3h-7.184c-.414-1.161-1.514-2-2.816-2h-32c-1.302 0-2.402.839-2.816 2h-7.184c-2.757 0-5 2.243-5 5v32c0 2.757 2.243 5 5 5h9v18h25.414l8.586-8.586v-9.414h9c2.757 0 5-2.243 5-5v-32c0-2.757-2.243-5-5-5zm-43 1c0-.552.448-1 1-1h32c.552 0 1 .448 1 1v18c0 .552-.448 1-1 1h-7v-1c0-1.654-1.346-3-3-3h-12c-1.654 0-3 1.346-3 3v1h-7c-.552 0-1-.448-1-1zm24 19h-14v-1c0-.552.448-1 1-1h12c.552 0 1 .448 1 1zm-33-18h7v17c0 1.654 1.346 3 3 3h32c1.654 0 3-1.346 3-3v-17h7c1.654 0 3 1.346 3 3v23h-58v-23c0-1.654 1.346-3 3-3zm47 32h-42v-4h42zm-50 3v-7h6v10h-3c-1.654 0-3-1.346-3-3zm8 3v-4h4v4zm6-4h30v14h-8v8h-22zm28.586 16-4.586 4.586v-4.586zm3.414-16h4v4h-4zm9 4h-3v-10h6v7c0 1.654-1.346 3-3 3zm-47-36h-6v6h6zm-2 4h-2v-2h2zm2 4h-6v6h6zm-2 4h-2v-2h2zm12 24h-2v-2h2zm24 0h-22v-2h22zm0 4h-26v-2h26zm-26 2v10h18v-10zm16 8h-14v-6h14zm8-8h2v2h-2zm-4 0h2v2h-2zm8-42h-2v-2h2zm-4 0h-2v-2h2zm-4 0h-2v-2h2zm20 22h-2v-2h2zm0-4h-2v-2h2zm0-4h-2v-2h2z"
        fill="url(#SVGID_1_)" />
</svg>