<svg height="512" viewBox="0 0 496 496" width="512" xmlns="http://www.w3.org/2000/svg"
    xmlns:xlink="http://www.w3.org/1999/xlink">
    <linearGradient id="a" gradientUnits="userSpaceOnUse" x1="248" x2="248" y1="496" y2="0">
        <stop offset="0" stop-color="#9f2fff" />
        <stop offset="1" stop-color="#0bb1d3" />
    </linearGradient>
    <path
        d="m80 240h48v-80h-48zm16-64h16v48h-16zm96 64h80v-48h-80zm16-32h48v16h-48zm-16-48h80v16h-80zm-80 208h-32v-16h32zm160 0h-144v-16h144zm0 32h-192v-16h192zm-96 16h96v16h-96zm-16 16h-80v-16h80zm64 32h-144v-16h144zm16-16h32v16h-32zm-80-448v128h-136c-13.230469 0-24 10.769531-24 24v320c0 13.230469 10.769531 24 24 24h304c13.230469 0 24-10.769531 24-24v-88h144v-282.894531l-84.257812-101.105469zm-96 144h224v112h-224zm224 336h-224v-144h224zm48-8c0 4.414062-3.59375 8-8 8h-24v-160h-256v160h-24c-4.40625 0-8-3.585938-8-8v-320c0-4.414062 3.59375-8 8-8h24v128h256v-112l32 42.664062zm144-104h-128v-170.664062l-52-69.335938h-124v-112h224v96h80zm-64-337.902344 54.921875 65.902344h-54.921875zm-48 321.902344h96v-144h-96zm16-128h64v112h-64zm-16-48h96v16h-96zm0-32h96v16h-96zm16-112h-192v80h192zm-16 64h-160v-48h160zm0 0"
        fill="url(#a)" />
</svg>