<svg id="Layer_5" enable-background="new 0 0 64 64" height="512" viewBox="0 0 64 64" width="512" xmlns="http://www.w3.org/2000/svg" xmlns:xlink="http://www.w3.org/1999/xlink"><linearGradient id="SVGID_1_" gradientUnits="userSpaceOnUse" x1="32" x2="32" y1="63" y2="1"><stop offset="0" stop-color="#9f2fff"/><stop offset="1" stop-color="#0bb1d3"/></linearGradient><path d="m35.293 7.293 1.414 1.414-.586.586c-1.1 1.101-2.564 1.707-4.121 1.707s-3.021-.606-4.121-1.707l-.586-.586 1.414-1.414.586.586c.477.476 1.074.78 1.707.942v-3.821h2v3.821c.633-.162 1.231-.466 1.707-.942zm-19.026 37.618c-1.487-1.482-2.267-3.158-2.267-4.911 0-2.721 1.857-5.204 5.214-7.068-.137-.623-.214-1.268-.214-1.932v-.101c-2.279-.465-4-2.484-4-4.899v-10.415-.585h-2v-2.255l.376-.689c3.72-6.82 10.856-11.056 18.624-11.056s14.904 4.236 18.624 11.057l.376.688v2.255h-2v.585 10.415c0 2.414-1.721 4.434-4 4.899v.101c0 .664-.077 1.31-.214 1.933 3.357 1.863 5.214 4.345 5.214 7.067 0 1.753-.78 3.429-2.267 4.911 4.571 3.515 7.267 8.938 7.267 14.753v3.336h-8-30-8v-3.336c0-5.815 2.696-11.238 7.267-14.753zm30.733 1.977v14.112h6v-1.336c0-4.979-2.217-9.634-6-12.776zm-2.875-12.042c-.71 1.494-1.814 2.765-3.185 3.669.027.161.06.321.06.485 0 4.625-3.507 8.442-8 8.941v5.059h4.184c.414-1.161 1.514-2 2.816-2 1.654 0 3 1.346 3 3s-1.346 3-3 3c-1.302 0-2.402-.839-2.816-2h-4.184v6h12v-16.393l.391-.3c1.19-.913 2.609-2.403 2.609-4.307 0-1.857-1.403-3.699-3.875-5.154zm-4.125 20.154c.551 0 1-.448 1-1s-.449-1-1-1-1 .448-1 1 .449 1 1 1zm-21-35.341c-.275-.052-.538-.103-.775-.15-.442-.088-.852-.252-1.225-.469v2.986c.584-.442 1.257-.773 2-.924zm2 11.341c0 3.859 3.14 7 7 7h8c3.86 0 7-3.141 7-7v-10.989c-2.963.487-6.984.988-11 .988s-8.037-.501-11-.988zm24-9.899c.743.152 1.416.482 2 .924v-2.986c-.373.217-.783.382-1.225.469-.237.047-.5.098-.775.15zm-6.025 18.383c-.447.157-.909.281-1.385.367l.106.529c.085.426.433.746.864.797.028.003.056.008.084.012.18-.543.291-1.114.331-1.705zm-13.95 0c.041.591.152 1.163.331 1.705.029-.003.056-.009.085-.012.431-.051.779-.371.864-.797l.106-.529c-.477-.086-.939-.21-1.386-.367zm1.254 3.536c1.268 1.799 3.357 2.98 5.721 2.98s4.454-1.181 5.722-2.981c-1.003-.337-1.772-1.177-1.986-2.246l-.155-.773h-7.161l-.154.771c-.214 1.071-.983 1.912-1.987 2.249zm20.721-17.02c0-1.302-.839-2.402-2-2.816v5.631c1.161-.413 2-1.513 2-2.815zm-31.86-13h33.72c-3.371-6.169-9.83-10-16.86-10-7.031 0-13.49 3.831-16.86 10zm1.86 2v.585c0 .95.68 1.776 1.616 1.963 2.719.542 8.073 1.451 13.384 1.451s10.666-.909 13.384-1.451c.936-.187 1.616-1.013 1.616-1.963v-.585zm2 13.816v-5.631c-1.161.414-2 1.514-2 2.816s.839 2.401 2 2.815zm-3 11.184c0 1.904 1.419 3.394 2.609 4.308l.391.3v16.392h12v-6h-4.184c-.414 1.161-1.514 2-2.816 2-1.654 0-3-1.346-3-3s1.346-3 3-3c1.302 0 2.402.839 2.816 2h4.184v-5.059c-4.493-.499-8-4.316-8-8.941 0-.164.033-.324.06-.485-1.371-.904-2.475-2.175-3.185-3.669-2.472 1.456-3.875 3.297-3.875 5.154zm8 13c-.551 0-1 .448-1 1s.449 1 1 1 1-.448 1-1-.449-1-1-1zm-13 6.664v1.336h6v-14.112c-3.783 3.142-6 7.797-6 12.776zm16-29.664h10v1c0 2.757-2.243 5-5 5s-5-2.243-5-5zm2.171 2c.413 1.164 1.525 2 2.829 2s2.416-.836 2.829-2zm-6.171-7c0-1.654 1.346-3 3-3s3 1.346 3 3-1.346 3-3 3-3-1.346-3-3zm2 0c0 .552.449 1 1 1s1-.448 1-1-.449-1-1-1-1 .448-1 1zm10 0c0-1.654 1.346-3 3-3s3 1.346 3 3-1.346 3-3 3-3-1.346-3-3zm2 0c0 .552.449 1 1 1s1-.448 1-1-.449-1-1-1-1 .448-1 1z" fill="url(#SVGID_1_)"/></svg>