<?xml version="1.0" encoding="iso-8859-1"?>
<!-- Generator: Adobe Illustrator 19.0.0, SVG Export Plug-In . SVG Version: 6.00 Build 0)  -->
<svg version="1.1" id="Capa_1" xmlns="http://www.w3.org/2000/svg" xmlns:xlink="http://www.w3.org/1999/xlink" x="0px" y="0px"
	 viewBox="0 0 512 512" style="enable-background:new 0 0 512 512;" xml:space="preserve">
<linearGradient id="SVGID_1_" gradientUnits="userSpaceOnUse" x1="0" y1="257.9995" x2="512" y2="257.9995" gradientTransform="matrix(1 0 0 -1 0 513.9995)">
	<stop  offset="0" style="stop-color:#80D8FF"/>
	<stop  offset="1" style="stop-color:#EA80FC"/>
</linearGradient>
<path style="fill:url(#SVGID_1_);" d="M332,128H196V44c0-7.376-4.06-14.153-10.563-17.633s-14.394-3.099-20.531,0.992l-156,104
	C3.342,135.068,0,141.313,0,148s3.342,12.932,8.906,16.641l156,104c6.146,4.097,14.037,4.468,20.531,0.992
	C191.94,266.153,196,259.376,196,252v-84h136c77.196,0,140,62.804,140,140s-62.804,140-140,140c-11.046,0-20,8.954-20,20
	s8.954,20,20,20c99.252,0,180-80.748,180-180S431.252,128,332,128z M156,214.63L56.056,148L156,81.37V214.63z"/>
<g>
</g>
<g>
</g>
<g>
</g>
<g>
</g>
<g>
</g>
<g>
</g>
<g>
</g>
<g>
</g>
<g>
</g>
<g>
</g>
<g>
</g>
<g>
</g>
<g>
</g>
<g>
</g>
<g>
</g>
</svg>
