<svg height="512" viewBox="0 0 496 496" width="512" xmlns="http://www.w3.org/2000/svg"
    xmlns:xlink="http://www.w3.org/1999/xlink">
    <linearGradient id="a" gradientUnits="userSpaceOnUse" x1="248" x2="248" y1="496" y2="0">
        <stop offset="0" stop-color="#9f2fff" />
        <stop offset="1" stop-color="#0bb1d3" />
    </linearGradient>
    <path
        d="m456 224h-72v-224h-315.3125l-68.6875 68.6875v427.3125h384v-160h40c13.230469 0 24-10.769531 24-24 0-2.816406-.574219-5.488281-1.472656-8h9.472656c22.054688 0 40-17.945312 40-40s-17.945312-40-40-40zm-248 64v-48h192v48zm-16-2.753906-62.039062-18.613282c-1.167969-.351562-1.960938-1.410156-1.960938-2.632812s.792969-2.28125 1.960938-2.632812l62.039062-18.613282zm-128-257.933594v36.6875h-36.6875zm368 284.6875c0 4.40625-3.585938 8-8 8h-128v16h72v144h-352v-400h64v-64h288v208h-168l-74.632812 22.039062c-7.992188 2.402344-13.367188 9.617188-13.367188 17.960938s5.375 15.558594 13.367188 17.960938l73.464843 22.039062h225.167969c4.414062 0 8 3.59375 8 8zm24-24h-40v-48h40c13.230469 0 24 10.769531 24 24s-10.769531 24-24 24zm-104-240h-144v-16h144zm0 32h-144v-16h144zm-320 384h224v-144h-224zm16-128h192v112h-192zm48-32h-64v-16h64zm0-32h-64v-16h64zm256-160h-320v-16h320zm0 32h-320v-16h320zm0 32h-320v-16h320zm-32 32h-288v-16h288zm16-16h16v16h-16zm-240 48h-64v-16h64zm0 0"
        fill="url(#a)" />
</svg>