<svg id="Layer_35" enable-background="new 0 0 64 64" height="512" viewBox="0 0 64 64" width="512"
    xmlns="http://www.w3.org/2000/svg" xmlns:xlink="http://www.w3.org/1999/xlink">
    <linearGradient id="SVGID_1_" gradientUnits="userSpaceOnUse" x1="32" x2="32" y1="63" y2="1">
        <stop offset="0" stop-color="#9f2fff" />
        <stop offset="1" stop-color="#0bb1d3" />
    </linearGradient>
    <path
        d="m11 38.279v9.064c0 4.438 2.621 8.471 6.677 10.273l3.323 1.479 3.323-1.478c4.056-1.803 6.677-5.835 6.677-10.273v-9.064l-10-3.333zm18 9.065c0 3.649-2.154 6.964-5.489 8.445l-2.511 1.116-2.511-1.116c-3.335-1.481-5.489-4.796-5.489-8.445v-7.623l8-2.667 8 2.667zm-13-3.344c0 1.563.754 3.04 2 3.979v5.021h6v-5.021c1.246-.939 2-2.416 2-3.979 0-2.757-2.243-5-5-5s-5 2.243-5 5zm8 0c0 1.068-.562 2.033-1.503 2.581l-.497.289v4.13h-2v-4.13l-.497-.289c-.941-.548-1.503-1.513-1.503-2.581 0-1.654 1.346-3 3-3s3 1.346 3 3zm22-43c-9.374 0-17 7.626-17 17v13h-23c-2.757 0-5 2.243-5 5v22c0 2.757 2.243 5 5 5h30c2.757 0 5-2.243 5-5v-22c0-2.414-1.721-4.434-4-4.899v-13.101c0-4.962 4.037-9 9-9s9 4.038 9 9v5c0 2.206 1.794 4 4 4s4-1.794 4-4v-5c0-9.374-7.626-17-17-17zm-7 35v22c0 1.654-1.346 3-3 3h-30c-1.654 0-3-1.346-3-3v-22c0-1.654 1.346-3 3-3h30c1.654 0 3 1.346 3 3zm22-13c0 1.103-.897 2-2 2s-2-.897-2-2v-5c0-6.065-4.935-11-11-11s-11 4.935-11 11v13h-4v-13c0-8.271 6.729-15 15-15s15 6.729 15 15zm-11 9h2v8h-2zm3 10h2v8h-2zm6 8h-2v-8h2zm1 10h-2v-8h2zm-14-8h2v8h-2zm2-12h-2v-8h2zm12-6c0-1.103-.897-2-2-2h-2c-1.103 0-2 .897-2 2v4c0 1.103.897 2 2 2h2c1.103 0 2-.897 2-2zm-4 4v-4h2l.002 4zm-11 6v4c0 1.103.897 2 2 2h2c1.103 0 2-.897 2-2v-4c0-1.103-.897-2-2-2h-2c-1.103 0-2 .897-2 2zm2 0h2l.002 4h-2.002zm3 10v4c0 1.103.897 2 2 2h2c1.103 0 2-.897 2-2v-4c0-1.103-.897-2-2-2h-2c-1.103 0-2 .897-2 2zm4.002 4h-2.002v-4h2zm-37.002-45h-2v-8h2zm4 0h-2v-8h2zm-16 0h-2v-8h2zm6-8h-2c-1.103 0-2 .897-2 2v4c0 1.103.897 2 2 2h2c1.103 0 2-.897 2-2v-4c0-1.103-.897-2-2-2zm-2 6v-4h2l.001 4zm18 2c1.103 0 2-.897 2-2v-4c0-1.103-.897-2-2-2h-2c-1.103 0-2 .897-2 2v4c0 1.103.897 2 2 2zm-2-6h2l.001 4h-2.001zm-22 8h2v8h-2zm4 0h2v8h-2zm6 0c-1.103 0-2 .897-2 2v4c0 1.103.897 2 2 2h2c1.103 0 2-.897 2-2v-4c0-1.103-.897-2-2-2zm0 6v-4h2l.001 4zm6 0c0 1.103.897 2 2 2h2c1.103 0 2-.897 2-2v-4c0-1.103-.897-2-2-2h-2c-1.103 0-2 .897-2 2zm2-4h2l.001 4h-2.001zm-14 40h4v2h-4c-1.103 0-2-.897-2-2v-10h2zm0-12h-2v-2h2zm28-10h2v2h-2zm0 4h2v2h-2zm0 4h2v2h-2zm2 15c0 .552-.448 1-1 1s-1-.448-1-1 .448-1 1-1 1 .448 1 1zm-32-22c0-.552.448-1 1-1s1 .448 1 1-.448 1-1 1-1-.448-1-1z"
        fill="url(#SVGID_1_)" />
</svg>