<?xml version="1.0" encoding="iso-8859-1"?>
<!-- Generator: Adobe Illustrator 22.1.0, SVG Export Plug-In . SVG Version: 6.00 Build 0)  -->
<svg xmlns="http://www.w3.org/2000/svg" xmlns:xlink="http://www.w3.org/1999/xlink" version="1.1" id="Layer_1_1_" x="0px" y="0px" viewBox="0 0 64 64" style="enable-background:new 0 0 64 64;" xml:space="preserve" width="512" height="512">
<linearGradient id="SVGID_1_" gradientUnits="userSpaceOnUse" x1="32" y1="63" x2="32" y2="1">
	<stop offset="0" style="stop-color:#9F2FFF"/>
	<stop offset="1" style="stop-color:#0BB1D3"/>
</linearGradient>
<path style="fill:url(#SVGID_1_);" d="M23,7h-8V5h8V7z M27,5h-2v2h2V5z M13,5h-2v2h2V5z M16,59h6v-2h-6V59z M39.573,24.514  l6.644-4.271C46.088,19.85,46,19.437,46,19c0-2.206,1.794-4,4-4s4,1.794,4,4s-1.794,4-4,4c-1.046,0-1.992-0.413-2.705-1.072  l-6.644,4.27C40.869,26.759,41,27.363,41,28s-0.131,1.241-0.349,1.802l6.644,4.271C48.008,33.413,48.954,33,50,33  c2.206,0,4,1.794,4,4s-1.794,4-4,4s-4-1.794-4-4c0-0.437,0.088-0.849,0.218-1.243l-6.644-4.271C38.665,32.417,37.401,33,36,33  c-2.757,0-5-2.243-5-5s2.243-5,5-5C37.401,23,38.665,23.583,39.573,24.514z M48,37c0,1.103,0.897,2,2,2s2-0.897,2-2s-0.897-2-2-2  S48,35.897,48,37z M48,19c0,1.103,0.897,2,2,2s2-0.897,2-2s-0.897-2-2-2S48,17.897,48,19z M39,28c0-1.654-1.346-3-3-3s-3,1.346-3,3  s1.346,3,3,3S39,29.654,39,28z M63,28c0,9.925-8.075,18-18,18c-2.169,0-4.29-0.383-6.303-1.138l0.702-1.873  C41.187,43.66,43.072,44,45,44c8.822,0,16-7.178,16-16s-7.178-16-16-16s-16,7.178-16,16c0,2.089,0.404,4.132,1.2,6.07l0.173,0.421  L28.618,38h3.896l0.299,0.353c1.072,1.26,2.323,2.343,3.717,3.216L37,41.862L37,58c0,2.757-2.243,5-5,5H6c-2.757,0-5-2.243-5-5V6  c0-2.757,2.243-5,5-5h26c2.757,0,5,2.243,5,5v5.877C39.411,10.676,42.128,10,45,10C54.925,10,63,18.075,63,28z M3,6v3h32V6  c0-1.654-1.346-3-3-3H6C4.346,3,3,4.346,3,6z M35,58l0-3H3v3c0,1.654,1.346,3,3,3h26C33.654,61,35,59.654,35,58z M31,16.698V16  c0-0.552-0.449-1-1-1H8c-0.551,0-1,0.448-1,1v32c0,0.552,0.449,1,1,1h22c0.551,0,1-0.448,1-1v-8h-5.618l2.799-5.598  C27.397,32.35,27,30.198,27,28C27,23.723,28.499,19.79,31,16.698z M35,13.04V11H3v42h32l0-10.041c-0.704-0.472-1.369-0.997-2-1.563  V48c0,1.654-1.346,3-3,3H8c-1.654,0-3-1.346-3-3V16c0-1.654,1.346-3,3-3h22c1.237,0,2.301,0.753,2.759,1.824  C33.458,14.174,34.204,13.574,35,13.04z"/>
</svg>
